<?xml version="1.0" encoding="UTF-8"?>
<svg xmlns="http://www.w3.org/2000/svg" viewBox="0 0 800 800" width="800" height="800">
  <title>ROK_US Alliance - Dual Flag Logo (Corrected)</title>

  <defs>
    <symbol id="star5L" viewBox="-10 -10 20 20" overflow="visible">
      <polygon points="0,-9 2.65,-2.78 9,-2.78 3.93,1.5 5.6,8.18 0,4.27 -5.6,8.18 -3.93,1.5 -9,-2.78 -2.65,-2.78"
               fill="#FFFFFF"/>
    </symbol>

    <linearGradient id="usFlagShadeL" x1="0%" y1="0%" x2="0%" y2="100%">
      <stop offset="0%" stop-color="#FFFFFF" stop-opacity="0.15"/>
      <stop offset="100%" stop-color="#000000" stop-opacity="0.45"/>
    </linearGradient>

    <linearGradient id="krFlagShadeL" x1="0%" y1="0%" x2="0%" y2="100%">
      <stop offset="0%" stop-color="#FFFFFF" stop-opacity="0.15"/>
      <stop offset="100%" stop-color="#000000" stop-opacity="0.45"/>
    </linearGradient>

    <radialGradient id="centerGlowL" cx="50%" cy="50%" r="60%">
      <stop offset="0%" stop-color="#E63946" stop-opacity="0.3"/>
      <stop offset="100%" stop-color="#E63946" stop-opacity="0"/>
    </radialGradient>

    <clipPath id="usFlagWaveL">
      <path d="M 0,0 Q 80,-12 160,4 Q 240,18 320,2 L 322,260 Q 240,278 160,262 Q 80,246 0,260 Z"/>
    </clipPath>

    <clipPath id="krFlagWaveL">
      <path d="M 0,2 Q 80,18 160,4 Q 240,-12 320,0 L 320,260 Q 240,246 160,262 Q 80,278 0,260 Z"/>
    </clipPath>
  </defs>

  <rect width="800" height="800" fill="#0a0d12"/>

  <text x="400" y="50" text-anchor="middle" fill="#E63946" font-family="sans-serif"
        font-size="13" font-weight="600" letter-spacing="6">DUAL · FLAG · LOGO</text>
  <text x="400" y="72" text-anchor="middle" fill="#6B7280" font-family="sans-serif"
        font-size="10" letter-spacing="3">정확한 태극기 적용 버전</text>

  <circle cx="400" cy="380" r="240" fill="url(#centerGlowL)"/>

  <!-- ═══ LEFT: US FLAG ═══ -->
  <g transform="translate(80, 250)">
    <rect x="-12" y="-30" width="6" height="320" fill="#5a5a5a"/>
    <rect x="-13" y="-30" width="2" height="320" fill="#888"/>
    <circle cx="-9" cy="-35" r="8" fill="#C9A84C"/>
    <polygon points="-9,-46 -4,-32 -14,-32" fill="#C9A84C"/>

    <g clip-path="url(#usFlagWaveL)">
      <rect x="0" y="0" width="320" height="260" fill="#FFFFFF"/>
      <rect x="0" y="0" width="320" height="20" fill="#B22234"/>
      <rect x="0" y="40" width="320" height="20" fill="#B22234"/>
      <rect x="0" y="80" width="320" height="20" fill="#B22234"/>
      <rect x="0" y="120" width="320" height="20" fill="#B22234"/>
      <rect x="0" y="160" width="320" height="20" fill="#B22234"/>
      <rect x="0" y="200" width="320" height="20" fill="#B22234"/>
      <rect x="0" y="240" width="320" height="20" fill="#B22234"/>
      <rect x="0" y="0" width="128" height="140" fill="#3C3B6E"/>

      <!-- Stars -->
      <g>
        <use href="#star5L" x="8" y="8" width="11" height="11"/>
        <use href="#star5L" x="22" y="8" width="11" height="11"/>
        <use href="#star5L" x="36" y="8" width="11" height="11"/>
        <use href="#star5L" x="50" y="8" width="11" height="11"/>
        <use href="#star5L" x="64" y="8" width="11" height="11"/>
        <use href="#star5L" x="78" y="8" width="11" height="11"/>
        <use href="#star5L" x="92" y="8" width="11" height="11"/>
        <use href="#star5L" x="106" y="8" width="11" height="11"/>
        <use href="#star5L" x="14" y="22" width="11" height="11"/>
        <use href="#star5L" x="28" y="22" width="11" height="11"/>
        <use href="#star5L" x="42" y="22" width="11" height="11"/>
        <use href="#star5L" x="56" y="22" width="11" height="11"/>
        <use href="#star5L" x="70" y="22" width="11" height="11"/>
        <use href="#star5L" x="84" y="22" width="11" height="11"/>
        <use href="#star5L" x="98" y="22" width="11" height="11"/>
        <use href="#star5L" x="8" y="36" width="11" height="11"/>
        <use href="#star5L" x="22" y="36" width="11" height="11"/>
        <use href="#star5L" x="36" y="36" width="11" height="11"/>
        <use href="#star5L" x="50" y="36" width="11" height="11"/>
        <use href="#star5L" x="64" y="36" width="11" height="11"/>
        <use href="#star5L" x="78" y="36" width="11" height="11"/>
        <use href="#star5L" x="92" y="36" width="11" height="11"/>
        <use href="#star5L" x="106" y="36" width="11" height="11"/>
        <use href="#star5L" x="14" y="50" width="11" height="11"/>
        <use href="#star5L" x="28" y="50" width="11" height="11"/>
        <use href="#star5L" x="42" y="50" width="11" height="11"/>
        <use href="#star5L" x="56" y="50" width="11" height="11"/>
        <use href="#star5L" x="70" y="50" width="11" height="11"/>
        <use href="#star5L" x="84" y="50" width="11" height="11"/>
        <use href="#star5L" x="98" y="50" width="11" height="11"/>
        <use href="#star5L" x="8" y="64" width="11" height="11"/>
        <use href="#star5L" x="22" y="64" width="11" height="11"/>
        <use href="#star5L" x="36" y="64" width="11" height="11"/>
        <use href="#star5L" x="50" y="64" width="11" height="11"/>
        <use href="#star5L" x="64" y="64" width="11" height="11"/>
        <use href="#star5L" x="78" y="64" width="11" height="11"/>
        <use href="#star5L" x="92" y="64" width="11" height="11"/>
        <use href="#star5L" x="106" y="64" width="11" height="11"/>
        <use href="#star5L" x="14" y="78" width="11" height="11"/>
        <use href="#star5L" x="28" y="78" width="11" height="11"/>
        <use href="#star5L" x="42" y="78" width="11" height="11"/>
        <use href="#star5L" x="56" y="78" width="11" height="11"/>
        <use href="#star5L" x="70" y="78" width="11" height="11"/>
        <use href="#star5L" x="84" y="78" width="11" height="11"/>
        <use href="#star5L" x="98" y="78" width="11" height="11"/>
        <use href="#star5L" x="8" y="92" width="11" height="11"/>
        <use href="#star5L" x="22" y="92" width="11" height="11"/>
        <use href="#star5L" x="36" y="92" width="11" height="11"/>
        <use href="#star5L" x="50" y="92" width="11" height="11"/>
        <use href="#star5L" x="64" y="92" width="11" height="11"/>
        <use href="#star5L" x="78" y="92" width="11" height="11"/>
        <use href="#star5L" x="92" y="92" width="11" height="11"/>
        <use href="#star5L" x="106" y="92" width="11" height="11"/>
      </g>

      <rect x="0" y="0" width="320" height="260" fill="url(#usFlagShadeL)"/>

      <g fill="#000000" opacity="0.18">
        <path d="M 0,60 Q 80,55 160,68 Q 240,80 320,65 L 320,72 Q 240,87 160,75 Q 80,62 0,67 Z"/>
        <path d="M 0,140 Q 80,135 160,148 Q 240,160 320,145 L 320,152 Q 240,167 160,155 Q 80,142 0,147 Z"/>
        <path d="M 0,210 Q 80,205 160,218 Q 240,230 320,215 L 320,222 Q 240,237 160,225 Q 80,212 0,217 Z"/>
      </g>
    </g>
  </g>

  <!-- ═══ RIGHT: KR FLAG (with CORRECT taeguk) ═══ -->
  <g transform="translate(400, 250)">
    <rect x="326" y="-30" width="6" height="320" fill="#5a5a5a"/>
    <rect x="331" y="-30" width="2" height="320" fill="#888"/>
    <circle cx="329" cy="-35" r="8" fill="#C9A84C"/>
    <polygon points="329,-46 334,-32 324,-32" fill="#C9A84C"/>

    <g clip-path="url(#krFlagWaveL)">
      <rect x="0" y="0" width="320" height="260" fill="#FFFFFF"/>

      <!-- ═══ CORRECT TAEGUK ═══ -->
      <!-- Center: (160, 130), R=62, r=31 -->
      <circle cx="160" cy="130" r="62" fill="#CD2E3A"/>
      <path d="M 98,130 A 62,62 0 0,0 222,130 Z" fill="#003478"/>
      <circle cx="129" cy="130" r="31" fill="#CD2E3A"/>
      <circle cx="191" cy="130" r="31" fill="#003478"/>

      <!-- Trigrams -->
      <g fill="#000000">
        <g transform="translate(50, 45) rotate(-33.69)">
          <rect x="-22" y="-3" width="44" height="6"/>
          <rect x="-22" y="6" width="44" height="6"/>
          <rect x="-22" y="15" width="44" height="6"/>
        </g>
        <g transform="translate(270, 45) rotate(33.69)">
          <rect x="-22" y="-3" width="44" height="6"/>
          <rect x="-22" y="6" width="18" height="6"/>
          <rect x="4" y="6" width="18" height="6"/>
          <rect x="-22" y="15" width="44" height="6"/>
        </g>
        <g transform="translate(50, 215) rotate(33.69)">
          <rect x="-22" y="-3" width="18" height="6"/>
          <rect x="4" y="-3" width="18" height="6"/>
          <rect x="-22" y="6" width="44" height="6"/>
          <rect x="-22" y="15" width="18" height="6"/>
          <rect x="4" y="15" width="18" height="6"/>
        </g>
        <g transform="translate(270, 215) rotate(-33.69)">
          <rect x="-22" y="-3" width="18" height="6"/>
          <rect x="4" y="-3" width="18" height="6"/>
          <rect x="-22" y="6" width="18" height="6"/>
          <rect x="4" y="6" width="18" height="6"/>
          <rect x="-22" y="15" width="18" height="6"/>
          <rect x="4" y="15" width="18" height="6"/>
        </g>
      </g>

      <rect x="0" y="0" width="320" height="260" fill="url(#krFlagShadeL)"/>

      <g fill="#000000" opacity="0.18">
        <path d="M 0,60 Q 80,68 160,55 Q 240,42 320,55 L 320,62 Q 240,49 160,62 Q 80,75 0,67 Z"/>
        <path d="M 0,140 Q 80,148 160,135 Q 240,122 320,135 L 320,142 Q 240,129 160,142 Q 80,155 0,147 Z"/>
        <path d="M 0,210 Q 80,218 160,205 Q 240,192 320,205 L 320,212 Q 240,199 160,212 Q 80,225 0,217 Z"/>
      </g>
    </g>
  </g>

  <!-- ═══ CENTER: Brand Mark ═══ -->
  <g transform="translate(400, 380)">
    <circle r="120" fill="#0D1117" opacity="0.5"/>
    <circle r="120" fill="none" stroke="#E63946" stroke-width="2" opacity="0.6"/>
    <circle r="108" fill="none" stroke="#E63946" stroke-width="1" opacity="0.5"/>

    <g>
      <rect x="-50" y="-55" width="14" height="110" fill="#E63946"/>
      <rect x="-50" y="-55" width="14" height="14" fill="#FFFFFF"/>
      <rect x="36" y="-55" width="14" height="110" fill="#E63946"/>
      <rect x="36" y="-55" width="14" height="14" fill="#FFFFFF"/>
      <rect x="-50" y="-7" width="100" height="14" fill="#E63946"/>
      <polygon points="0,-7 8,0 0,7 -8,0" fill="#FFFFFF"/>
    </g>

    <text y="-78" text-anchor="middle" fill="#FFFFFF"
          font-family="'Bebas Neue', Impact, sans-serif"
          font-size="22" font-weight="700" letter-spacing="3">ROK · US</text>
    <text y="92" text-anchor="middle" fill="#E63946"
          font-family="'Bebas Neue', Impact, sans-serif"
          font-size="14" font-weight="700" letter-spacing="6">ALLIANCE</text>
    <line x1="-90" y1="-78" x2="-65" y2="-78" stroke="#E63946" stroke-width="1.5"/>
    <line x1="65" y1="-78" x2="90" y2="-78" stroke="#E63946" stroke-width="1.5"/>
  </g>

  <g transform="translate(400, 620)">
    <text text-anchor="middle" fill="#F0F0F0"
          font-family="sans-serif"
          font-size="18" font-weight="600" letter-spacing="8">한 미 동 맹 단</text>
    <line x1="-100" y1="20" x2="100" y2="20" stroke="#E63946" stroke-width="0.8" opacity="0.5"/>
    <text y="42" text-anchor="middle" fill="#6B7280"
          font-family="sans-serif"
          font-size="11" letter-spacing="4">CIVIC · NETWORK · ALLIANCE</text>
  </g>

  <text x="400" y="730" text-anchor="middle" fill="#6B7280" font-family="sans-serif"
        font-size="9" letter-spacing="3">한미 우호 시민 네트워크</text>
</svg>
