<?xml version="1.0" encoding="UTF-8"?>
<svg xmlns="http://www.w3.org/2000/svg" viewBox="0 0 320 260" width="320" height="260">
  <title>US Flag Waving - For Splash Screen</title>

  <defs>
    <symbol id="star5us" viewBox="-10 -10 20 20" overflow="visible">
      <polygon points="0,-9 2.65,-2.78 9,-2.78 3.93,1.5 5.6,8.18 0,4.27 -5.6,8.18 -3.93,1.5 -9,-2.78 -2.65,-2.78"
               fill="#FFFFFF"/>
    </symbol>
    <linearGradient id="usShadeWv" x1="0%" y1="0%" x2="0%" y2="100%">
      <stop offset="0%" stop-color="#FFFFFF" stop-opacity="0.15"/>
      <stop offset="100%" stop-color="#000000" stop-opacity="0.5"/>
    </linearGradient>
    <clipPath id="usWaveClipFlag">
      <path d="M 0,0 Q 80,-12 160,4 Q 240,18 320,2 L 322,260 Q 240,278 160,262 Q 80,246 0,260 Z"/>
    </clipPath>
  </defs>

  <g clip-path="url(#usWaveClipFlag)">
    <rect x="0" y="0" width="320" height="260" fill="#FFFFFF"/>

    <!-- 7 red stripes (alternating with 6 white) -->
    <rect x="0" y="0" width="320" height="20" fill="#B22234"/>
    <rect x="0" y="40" width="320" height="20" fill="#B22234"/>
    <rect x="0" y="80" width="320" height="20" fill="#B22234"/>
    <rect x="0" y="120" width="320" height="20" fill="#B22234"/>
    <rect x="0" y="160" width="320" height="20" fill="#B22234"/>
    <rect x="0" y="200" width="320" height="20" fill="#B22234"/>
    <rect x="0" y="240" width="320" height="20" fill="#B22234"/>

    <!-- Blue canton -->
    <rect x="0" y="0" width="128" height="140" fill="#3C3B6E"/>

    <!-- 50 stars in 9-row pattern (6,5,6,5,6,5,6,5,6) — 정통 캔턴 12열 그리드 -->
    <!-- 캔턴 128×140 / 가로 spacing 128/12 ≈ 10.67 / 세로 spacing 140/10 = 14 -->
    <!-- Row 1 (y=12): 6 stars -->
    <use href="#star5us" x="9" y="12" width="4" height="4"/>
    <use href="#star5us" x="30" y="12" width="4" height="4"/>
    <use href="#star5us" x="51" y="12" width="4" height="4"/>
    <use href="#star5us" x="73" y="12" width="4" height="4"/>
    <use href="#star5us" x="94" y="12" width="4" height="4"/>
    <use href="#star5us" x="115" y="12" width="4" height="4"/>
    <!-- Row 2 (y=26): 5 stars -->
    <use href="#star5us" x="19" y="26" width="4" height="4"/>
    <use href="#star5us" x="41" y="26" width="4" height="4"/>
    <use href="#star5us" x="62" y="26" width="4" height="4"/>
    <use href="#star5us" x="83" y="26" width="4" height="4"/>
    <use href="#star5us" x="105" y="26" width="4" height="4"/>
    <!-- Row 3 (y=40): 6 stars -->
    <use href="#star5us" x="9" y="40" width="4" height="4"/>
    <use href="#star5us" x="30" y="40" width="4" height="4"/>
    <use href="#star5us" x="51" y="40" width="4" height="4"/>
    <use href="#star5us" x="73" y="40" width="4" height="4"/>
    <use href="#star5us" x="94" y="40" width="4" height="4"/>
    <use href="#star5us" x="115" y="40" width="4" height="4"/>
    <!-- Row 4 (y=54): 5 stars -->
    <use href="#star5us" x="19" y="54" width="4" height="4"/>
    <use href="#star5us" x="41" y="54" width="4" height="4"/>
    <use href="#star5us" x="62" y="54" width="4" height="4"/>
    <use href="#star5us" x="83" y="54" width="4" height="4"/>
    <use href="#star5us" x="105" y="54" width="4" height="4"/>
    <!-- Row 5 (y=68): 6 stars -->
    <use href="#star5us" x="9" y="68" width="4" height="4"/>
    <use href="#star5us" x="30" y="68" width="4" height="4"/>
    <use href="#star5us" x="51" y="68" width="4" height="4"/>
    <use href="#star5us" x="73" y="68" width="4" height="4"/>
    <use href="#star5us" x="94" y="68" width="4" height="4"/>
    <use href="#star5us" x="115" y="68" width="4" height="4"/>
    <!-- Row 6 (y=82): 5 stars -->
    <use href="#star5us" x="19" y="82" width="4" height="4"/>
    <use href="#star5us" x="41" y="82" width="4" height="4"/>
    <use href="#star5us" x="62" y="82" width="4" height="4"/>
    <use href="#star5us" x="83" y="82" width="4" height="4"/>
    <use href="#star5us" x="105" y="82" width="4" height="4"/>
    <!-- Row 7 (y=96): 6 stars -->
    <use href="#star5us" x="9" y="96" width="4" height="4"/>
    <use href="#star5us" x="30" y="96" width="4" height="4"/>
    <use href="#star5us" x="51" y="96" width="4" height="4"/>
    <use href="#star5us" x="73" y="96" width="4" height="4"/>
    <use href="#star5us" x="94" y="96" width="4" height="4"/>
    <use href="#star5us" x="115" y="96" width="4" height="4"/>
    <!-- Row 8 (y=110): 5 stars -->
    <use href="#star5us" x="19" y="110" width="4" height="4"/>
    <use href="#star5us" x="41" y="110" width="4" height="4"/>
    <use href="#star5us" x="62" y="110" width="4" height="4"/>
    <use href="#star5us" x="83" y="110" width="4" height="4"/>
    <use href="#star5us" x="105" y="110" width="4" height="4"/>
    <!-- Row 9 (y=124): 6 stars -->
    <use href="#star5us" x="9" y="124" width="4" height="4"/>
    <use href="#star5us" x="30" y="124" width="4" height="4"/>
    <use href="#star5us" x="51" y="124" width="4" height="4"/>
    <use href="#star5us" x="73" y="124" width="4" height="4"/>
    <use href="#star5us" x="94" y="124" width="4" height="4"/>
    <use href="#star5us" x="115" y="124" width="4" height="4"/>

    <!-- Cloth shading -->
    <rect x="0" y="0" width="320" height="260" fill="url(#usShadeWv)"/>

    <!-- Wave fold shadows -->
    <g fill="#000000" opacity="0.18">
      <path d="M 0,60 Q 80,55 160,68 Q 240,80 320,65 L 320,72 Q 240,87 160,75 Q 80,62 0,67 Z"/>
      <path d="M 0,140 Q 80,135 160,148 Q 240,160 320,145 L 320,152 Q 240,167 160,155 Q 80,142 0,147 Z"/>
      <path d="M 0,210 Q 80,205 160,218 Q 240,230 320,215 L 320,222 Q 240,237 160,225 Q 80,212 0,217 Z"/>
    </g>
  </g>
</svg>
